<svg height="512" viewBox="0 0 256 256" width="512" xmlns="http://www.w3.org/2000/svg"><path d="m137.127 206.625a13.107 13.107 0 0 1 -3.135-.375l-62.392-14.531h-29.366a2.5 2.5 0 0 1 0-5h29.652a2.523 2.523 0 0 1 .567.065l62.7 14.6a8.413 8.413 0 0 0 5.332-.451l64.628-28.686a2.5 2.5 0 1 1 2.029 4.571l-64.631 28.686a13.41 13.41 0 0 1 -5.384 1.121z" fill="#ebe7f2"/><path d="m57.058 170.62a7.121 7.121 0 1 1 7.12-7.12 7.128 7.128 0 0 1 -7.12 7.12zm0-9.241a2.121 2.121 0 1 0 2.12 2.121 2.123 2.123 0 0 0 -2.12-2.121z" fill="#ed9abc"/><path d="m215.116 166.984a15.3 15.3 0 0 0 -18.516-8.894l-44.324 13.135c.565-6.206-3.307-13.537-10.871-15.127l-35.544-8.883a13.178 13.178 0 0 0 -8.157.581l-23.311 9.448v-6.285a4.648 4.648 0 0 0 -4.643-4.642h-25.373a4.648 4.648 0 0 0 -4.643 4.642v51.7a4.648 4.648 0 0 0 4.643 4.643h25.368a4.648 4.648 0 0 0 4.643-4.643v-1.125l59.6 14.715a13.1 13.1 0 0 0 3.135.375 13.41 13.41 0 0 0 5.389-1.117l64.63-28.686a15.261 15.261 0 0 0 7.974-19.837zm-10 15.267-64.626 28.686a8.392 8.392 0 0 1 -5.3.459l-62.7-15.48a2.5 2.5 0 0 0 -3.1 2.427v3.96h-24.656v-50.986h24.654v9.619.019 28.264a2.5 2.5 0 0 0 5 0v-26.579l25.193-10.21a8.193 8.193 0 0 1 5.073-.363l35.627 8.9c4.953 1.043 7.595 6.158 6.954 10.281-.63 4.061-4.093 6.074-9.529 5.528-2.911-.295-6.54-.92-9.456-1.423-1.228-.212-2.359-.407-3.312-.557a2.5 2.5 0 1 0 -.78 4.939c.934.147 2.04.338 3.242.545 2.993.516 6.717 1.158 9.8 1.47 6.473.653 10.594-1.586 12.866-4.659l47.942-14.208a10.337 10.337 0 0 1 7.108 19.366z" fill="#846f75"/><path d="m95.121 38.242a2.5 2.5 0 0 0 2.5-2.5v-3.721h33.115v25.157a2.5 2.5 0 0 0 3.953 2.034l12.369-8.838 12.368 8.838a2.5 2.5 0 0 0 3.953-2.034v-25.157h33.115v98.873h-98.873v-1.988a2.5 2.5 0 0 0 -5 0v4.488a2.5 2.5 0 0 0 2.5 2.5h103.873a2.5 2.5 0 0 0 2.5-2.5v-103.873a2.5 2.5 0 0 0 -2.5-2.5h-103.873a2.5 2.5 0 0 0 -2.5 2.5v6.221a2.5 2.5 0 0 0 2.5 2.5zm63.258-6.221v20.3l-9.868-7.052a2.5 2.5 0 0 0 -2.907 0l-9.868 7.052v-20.3z" fill="#846f75"/><path d="m95.121 122.939a40.616 40.616 0 1 0 -40.615-40.615 40.66 40.66 0 0 0 40.615 40.615zm0-76.231a35.616 35.616 0 1 1 -35.615 35.616 35.656 35.656 0 0 1 35.615-35.616z" fill="#846f75"/><g fill="#ed9abc"><path d="m89.39 104.518a8.6 8.6 0 0 1 -6.442-2.906l-11.413-12.935a8.591 8.591 0 0 1 12.883-11.37l4.922 5.578 13.725-15.8a8.591 8.591 0 1 1 12.971 11.269l-20.16 23.207a8.6 8.6 0 0 1 -6.451 2.956zm-11.415-25.118a3.591 3.591 0 0 0 -2.69 5.967l11.415 12.933a3.6 3.6 0 0 0 2.693 1.214h.024a3.591 3.591 0 0 0 2.683-1.233l20.16-23.205a3.591 3.591 0 1 0 -5.422-4.711l-15.596 17.955a2.5 2.5 0 0 1 -1.878.86 2.373 2.373 0 0 1 -1.885-.846l-6.81-7.719a3.583 3.583 0 0 0 -2.694-1.215z"/><path d="m176.5 109.984h-9.59a2.5 2.5 0 0 1 0-5h9.59a2.5 2.5 0 0 1 0 5z"/><path d="m181.679 118.487h-14.774a2.5 2.5 0 0 1 0-5h14.774a2.5 2.5 0 0 1 0 5z"/></g><path d="m189.347 126.01h-31.415a2.5 2.5 0 0 1 -2.5-2.5v-24.11a2.5 2.5 0 0 1 2.5-2.5h31.415a2.5 2.5 0 0 1 2.5 2.5v24.11a2.5 2.5 0 0 1 -2.5 2.5zm-28.915-5h26.415v-19.11h-26.415z" fill="#ebe7f2"/></svg>